<svg width="270" height="21" viewBox="0 0 270 21" fill="none" xmlns="http://www.w3.org/2000/svg">
<path d="M0 0.529411H8.05416C9.52644 0.441176 10.9987 0.882352 12.1246 1.85294C13.0772 2.82353 13.5968 4.2353 13.5102 5.64706C13.5102 6.52941 13.337 7.41176 12.9906 8.11766C12.6442 8.82352 12.038 9.35292 11.3451 9.7941C11.9514 9.88236 12.6442 10.147 13.1638 10.4118C13.6835 10.6765 14.0299 11.0294 14.3763 11.4706C14.7227 11.9118 14.8959 12.3529 15.0691 12.8823C15.2423 13.4118 15.2423 14.0294 15.2423 14.5588C15.2423 15.4412 15.0691 16.2353 14.7227 17.0294C14.3763 17.7353 13.9433 18.3529 13.337 18.8823C12.7308 19.4117 12.038 19.7647 11.2585 19.9412C10.3059 20.2059 9.43985 20.2941 8.48722 20.2941H0.0866029L0 0.529411ZM5.10965 8.38234H6.58192C8.14079 8.38234 9.00683 7.76471 9.00683 6.44118C9.00683 5.11766 8.22738 4.49999 6.58192 4.49999H5.10965V8.38234ZM5.10965 16.4117H6.75511C7.70777 16.5 8.6604 16.3235 9.52644 15.8823C10.3925 15.2647 10.6523 14.0294 9.95946 13.1471C9.87287 12.9706 9.69965 12.7941 9.52644 12.7059C8.6604 12.2647 7.70777 12.1765 6.75511 12.1765H5.10965V16.4117ZM36.4602 4.94116H27.8865V8.29412H36.2005V12.7059H27.8865V16.1471H36.4602V20.5588H22.7769V0.529411H36.4602V4.94116ZM49.6241 12.4412L42.5225 0.529411H48.5849L52.2225 6.97059L55.8596 0.529411H61.922L54.6472 12.4412V20.3824H49.6241V12.4412ZM65.0398 10.5C65.0398 9.08824 65.2995 7.67648 65.8193 6.35296C66.8584 3.79413 68.9367 1.7647 71.4483 0.794117C74.2196 -0.264706 77.3374 -0.264706 80.1955 0.794117C81.4943 1.32353 82.7071 2.02941 83.6595 3C84.6122 3.97058 85.3916 5.11766 85.8245 6.35296C86.864 9.00001 86.864 12 85.8245 14.647C85.3051 15.8823 84.5257 17.0294 83.573 18C82.6203 18.9706 81.4079 19.7647 80.1087 20.2059C77.3374 21.2647 74.2196 21.2647 71.3618 20.2059C70.0626 19.6765 68.9367 18.9706 67.9844 18C67.0317 17.0294 66.2522 15.8823 65.7325 14.647C65.2995 13.3235 65.0398 11.9118 65.0398 10.5ZM70.3227 10.5C70.3227 11.2941 70.4956 12 70.7557 12.7059C71.2751 14.0294 72.401 15.0882 73.7002 15.6177C75.7785 16.5 78.1169 15.9706 79.6758 14.4706C80.1955 13.9412 80.6285 13.4118 80.8882 12.7059C81.4944 11.2941 81.4944 9.70587 80.8882 8.29412C80.6285 7.58822 80.1955 7.05882 79.6758 6.52941C78.0304 5.02943 75.7785 4.58825 73.7002 5.38234C72.401 5.91178 71.3619 6.97059 70.7557 8.38234C70.4956 9.00001 70.3227 9.70587 70.3227 10.5ZM93.2726 20.4706V0.529411H98.3822L107.736 12.7059V0.529411H112.758V20.3824H107.736L98.3822 8.29412V20.4706H93.2726ZM126.269 8.73529L132.418 0.529411H138.653L130.945 9.97059L139.433 20.4706H132.851L126.269 11.8235V20.4706H121.159V0.529411H126.269V8.73529Z" fill="#32B0A2"/>
<path d="M200.546 0.745498C200.661 1.44327 200.866 2.12298 201.156 2.76754C201.724 4.04253 202.546 5.18707 203.569 6.1309C204.594 7.07471 205.798 7.79787 207.11 8.25596C208.574 8.77324 210.113 9.04173 211.665 9.05033C213.228 9.03592 214.778 8.76767 216.256 8.25596C217.575 7.76559 218.792 7.03077 219.843 6.08947C220.84 5.17174 221.613 4.03499 222.102 2.76754C222.392 2.12298 222.597 1.44327 222.712 0.745498H216.902C216.613 1.40812 216.185 1.99955 215.646 2.47868C214.798 3.2055 213.775 3.69487 212.679 3.89768C211.584 4.10049 210.455 4.00962 209.405 3.63412C208.038 3.0824 206.933 2.02226 206.321 0.673281H200.582L200.546 0.745498Z" fill="#32B0A2"/>
<path d="M206.285 20.5326H200.546C200.661 19.8348 200.866 19.1551 201.156 18.5105C201.719 17.232 202.538 16.0845 203.563 15.14C204.588 14.1955 205.795 13.4745 207.11 13.0221C208.569 12.4874 210.112 12.2184 211.665 12.2278C213.229 12.2246 214.782 12.4934 216.256 13.0221C217.581 13.5012 218.799 14.2372 219.843 15.1886C220.84 16.1064 221.613 17.2431 222.102 18.5105C222.392 19.1551 222.597 19.8348 222.712 20.5326H216.902C216.622 19.8651 216.192 19.2719 215.646 18.7994C214.798 18.0726 213.775 17.5832 212.679 17.3804C211.584 17.1776 210.455 17.2685 209.405 17.6439C208.038 18.1957 206.933 19.2558 206.321 20.6048L206.285 20.5326Z" fill="#32B0A2"/>
<path d="M162.824 9.86975V13.996H165.638V16.3388H164.665C163.125 16.601 161.541 16.3557 160.15 15.6394C159.32 15.162 158.654 14.4427 158.239 13.5764C157.812 12.6071 157.587 11.5596 157.579 10.4992C157.551 9.44626 157.778 8.40229 158.239 7.45697C158.658 6.58166 159.338 5.8602 160.184 5.3939C161.251 4.82397 162.452 4.55798 163.658 4.62461C164.556 4.62571 165.453 4.71943 166.332 4.90434C167.129 5.0913 167.908 5.34873 168.66 5.67363L169.32 5.95336L169.841 1.40756H169.458C168.616 1.01952 167.729 0.737646 166.819 0.568339C165.775 0.272247 164.704 0.0847702 163.623 0.00885494C161.63 -0.0299276 159.655 0.401167 157.857 1.26769C156.22 2.02296 154.833 3.23692 153.863 4.76446C152.807 6.48139 152.298 8.48252 152.404 10.4992C152.409 12.3878 152.9 14.243 153.828 15.8842C154.705 17.3867 155.996 18.6013 157.544 19.381C159.29 20.3632 161.243 20.9144 163.241 20.9895C164.574 20.9914 165.902 20.8389 167.201 20.5349C168.226 20.3171 169.219 19.9644 170.153 19.4859H170.466V9.86975H162.824Z" fill="#32B0A2"/>
<path d="M189.8 12.2331C190.657 11.8437 191.426 11.2837 192.061 10.5867C192.799 9.57268 193.178 8.33985 193.14 7.08383C193.182 5.84303 192.842 4.61961 192.166 3.58092C191.499 2.6373 190.565 1.91727 189.487 1.51419C188.225 0.939601 186.868 0.606973 185.485 0.533371H177.517V20.465H182.319V13.4591H185.102L189 20.465H194.428L189.8 12.2331ZM182.319 4.52669H184.65C185.604 4.41937 186.566 4.65509 187.364 5.19225C187.6 5.4225 187.785 5.70118 187.905 6.00938C188.025 6.31758 188.078 6.64815 188.06 6.97876C188.07 7.31666 188.01 7.65291 187.884 7.96639C187.758 8.27984 187.569 8.56377 187.33 8.80026C186.499 9.35451 185.503 9.60207 184.511 9.50084H182.319V4.52669Z" fill="#32B0A2"/>
<path d="M241.882 0.533371V11.0237C241.957 11.8028 241.957 12.5874 241.882 13.3665C241.791 13.9693 241.591 14.5501 241.291 15.08C240.996 15.5334 240.573 15.8868 240.076 16.094C238.685 16.6076 237.159 16.6076 235.768 16.094C235.271 15.8868 234.847 15.5334 234.553 15.08C234.248 14.5526 234.047 13.9707 233.962 13.3665C233.888 12.5874 233.888 11.8028 233.962 11.0237V0.533371H228.856V11.828C228.831 13.4432 229.163 15.0438 229.829 16.5136C230.46 17.8688 231.508 18.9842 232.816 19.6957C234.365 20.482 236.084 20.8666 237.818 20.8147C239.53 20.8683 241.227 20.4833 242.75 19.6957C244.072 18.9902 245.131 17.8742 245.772 16.5136C246.438 15.0438 246.77 13.4432 246.744 11.828V0.533371H241.882Z" fill="#32B0A2"/>
<path d="M268.487 3.58321C267.869 2.51828 266.915 1.69231 265.778 1.23658C264.456 0.742526 263.053 0.504859 261.644 0.536095H253.864V20.465H258.692V14.0905H261.714C263.112 14.1225 264.503 13.8847 265.812 13.3901C266.931 12.9527 267.872 12.1515 268.487 11.1135C269.183 9.89286 269.497 8.48928 269.39 7.08566C269.398 5.85857 269.087 4.65079 268.487 3.58321ZM264.527 7.08566C264.565 7.4631 264.52 7.84434 264.393 8.20176C264.267 8.55919 264.064 8.8838 263.798 9.15208C263.063 9.65245 262.181 9.88705 261.297 9.81756H258.692V4.52888H261.193C262.1 4.44305 263.009 4.67834 263.763 5.19432C264.021 5.43272 264.224 5.72609 264.356 6.05321C264.489 6.38033 264.547 6.733 264.527 7.08566Z" fill="#32B0A2"/>
</svg>
